<svg width="10" height="10" viewBox="0 0 10 10" fill="none" xmlns="http://www.w3.org/2000/svg">
<path d="M7.50781 5.49219V4.50781H5.49219V2.49219H4.50781V4.50781H2.49219V5.49219H4.50781V7.50781H5.49219V5.49219H7.50781ZM1.46094 1.48438C2.44531 0.5 3.625 0.0078125 5 0.0078125C6.375 0.0078125 7.54688 0.5 8.51562 1.48438C9.5 2.45312 9.99219 3.625 9.99219 5C9.99219 6.375 9.5 7.55469 8.51562 8.53906C7.54688 9.50781 6.375 9.99219 5 9.99219C3.625 9.99219 2.44531 9.50781 1.46094 8.53906C0.492188 7.55469 0.0078125 6.375 0.0078125 5C0.0078125 3.625 0.492188 2.45312 1.46094 1.48438Z" fill="#9A9A9A"/>
</svg>
