<svg width="18" height="18" viewBox="0 0 18 18" fill="none" xmlns="http://www.w3.org/2000/svg">
<path d="M15.9231 10.0053C16.4966 10.0053 16.9615 9.5404 16.9615 8.96687C16.9615 8.39335 16.4966 7.92841 15.9231 7.92841V10.0053ZM1.34262 8.23257C0.937075 8.63811 0.937075 9.29563 1.34262 9.70118L7.95135 16.3099C8.35689 16.7154 9.01441 16.7154 9.41995 16.3099C9.8255 15.9044 9.8255 15.2468 9.41995 14.8413L3.54553 8.96687L9.41995 3.09245C9.8255 2.6869 9.8255 2.02939 9.41995 1.62384C9.01441 1.2183 8.35689 1.2183 7.95135 1.62384L1.34262 8.23257ZM15.9231 7.92841L2.07692 7.92841V10.0053L15.9231 10.0053V7.92841Z" fill="#155297"/>
</svg>
