<svg width="10" height="10" viewBox="0 0 10 10" fill="none" xmlns="http://www.w3.org/2000/svg">
<path d="M3.99219 7.50793L8.49219 3.00793L7.78906 2.28137L3.99219 6.07825L2.21094 4.297L1.50781 5.00012L3.99219 7.50793ZM1.46094 1.4845C2.44531 0.500122 3.625 0.00793457 5 0.00793457C6.375 0.00793457 7.54688 0.500122 8.51562 1.4845C9.5 2.45325 9.99219 3.62512 9.99219 5.00012C9.99219 6.37512 9.5 7.55481 8.51562 8.53918C7.54688 9.50793 6.375 9.99231 5 9.99231C3.625 9.99231 2.44531 9.50793 1.46094 8.53918C0.492188 7.55481 0.0078125 6.37512 0.0078125 5.00012C0.0078125 3.62512 0.492188 2.45325 1.46094 1.4845Z" fill="white"/>
</svg>
