<svg width="12" height="14" viewBox="0 0 12 14" fill="none" xmlns="http://www.w3.org/2000/svg">
<path d="M10.402 10.6598H3.90076C3.55592 10.6598 3.22519 10.5253 2.98135 10.2859C2.7375 10.0465 2.60051 9.72175 2.60051 9.38317V1.7235C2.60051 1.38492 2.7375 1.06021 2.98135 0.820797C3.22519 0.581386 3.55592 0.446886 3.90076 0.446886H4.55089V3.63842L5.85114 2.68096L7.1514 3.63842V0.446886H10.402C10.7469 0.446886 11.0776 0.581386 11.3214 0.820797C11.5653 1.06021 11.7023 1.38492 11.7023 1.7235V9.38317C11.7023 9.72175 11.5653 10.0465 11.3214 10.2859C11.0776 10.5253 10.7469 10.6598 10.402 10.6598ZM9.10178 11.9364V13.213H1.30026C0.955409 13.213 0.624684 13.0785 0.380839 12.8391C0.136994 12.5997 3.8147e-06 12.275 3.8147e-06 11.9364V3.00011H1.30026V11.9364H9.10178Z" fill="black"/>
</svg>
