<svg width="12" height="13" viewBox="0 0 12 13" fill="none" xmlns="http://www.w3.org/2000/svg">
<path d="M10.0742 11.0742V4.67572H1.92578V11.0742H10.0742ZM8.32422 0.574158H9.5V1.74994H10.0742C10.3841 1.74994 10.6576 1.86843 10.8945 2.10541C11.1315 2.34239 11.25 2.61582 11.25 2.92572V11.0742C11.25 11.3841 11.1315 11.6575 10.8945 11.8945C10.6576 12.1314 10.3841 12.2499 10.0742 12.2499H1.92578C1.59766 12.2499 1.3151 12.1406 1.07812 11.9218C0.859375 11.6848 0.75 11.4023 0.75 11.0742V2.92572C0.75 2.61582 0.859375 2.34239 1.07812 2.10541C1.3151 1.86843 1.59766 1.74994 1.92578 1.74994H2.5V0.574158H3.67578V1.74994H8.32422V0.574158ZM8.92578 6.99994V9.92572H6V6.99994H8.92578Z" fill="#292D34"/>
</svg>
