<svg width="15" height="13" viewBox="0 0 15 13" fill="none" xmlns="http://www.w3.org/2000/svg">
<path fill-rule="evenodd" clip-rule="evenodd" d="M7.44691 1.91021C7.10463 1.91021 6.7657 1.97642 6.44947 2.10506C6.13325 2.23369 5.84592 2.42224 5.60389 2.65994C5.36186 2.89763 5.16988 3.17982 5.03889 3.49038C4.90791 3.80094 4.84049 4.1338 4.84049 4.46995C4.84049 4.8061 4.90791 5.13895 5.03889 5.44952C5.16988 5.76008 5.36186 6.04226 5.60389 6.27996C5.84592 6.51765 6.13325 6.7062 6.44947 6.83484C6.7657 6.96348 7.10463 7.02969 7.44691 7.02969C8.13817 7.02969 8.80112 6.76 9.28992 6.27996C9.77872 5.79991 10.0533 5.14883 10.0533 4.46995C10.0533 3.79106 9.77872 3.13998 9.28992 2.65994C8.80112 2.17989 8.13817 1.91021 7.44691 1.91021ZM6.32987 7.76104C5.53985 7.76104 4.78219 8.06925 4.22357 8.61788C3.66494 9.1665 3.35111 9.91059 3.35111 10.6865C3.35111 11.0744 3.50802 11.4464 3.78734 11.7207C4.06665 11.9951 4.44548 12.1492 4.84049 12.1492H10.0533C10.4483 12.1492 10.8272 11.9951 11.1065 11.7207C11.3858 11.4464 11.5427 11.0744 11.5427 10.6865C11.5427 9.91059 11.2289 9.1665 10.6702 8.61788C10.1116 8.06925 9.35396 7.76104 8.56394 7.76104H6.32987ZM11.4087 5.49677C11.6454 4.61135 11.5681 3.67315 11.1895 2.83662C10.8109 2.00009 10.1536 1.31508 9.32576 0.894356C9.64123 0.682642 10.0002 0.541632 10.3773 0.481314C10.7545 0.420995 11.1405 0.442843 11.508 0.54531C11.8756 0.647778 12.2157 0.828358 12.5044 1.07426C12.793 1.32017 13.023 1.62538 13.1782 1.9683C13.3333 2.31121 13.4098 2.68343 13.4022 3.0586C13.3946 3.43377 13.3031 3.80271 13.1342 4.1393C12.9653 4.47589 12.7232 4.7719 12.4248 5.00636C12.1265 5.24081 11.7793 5.40798 11.4079 5.49604L11.4087 5.49677ZM13.0321 10.6865H13.4044C13.7994 10.6865 14.1783 10.5324 14.4576 10.258C14.7369 9.98373 14.8938 9.61168 14.8938 9.22375C14.8938 8.44788 14.58 7.70379 14.0214 7.15517C13.4627 6.60654 12.7051 6.29833 11.9151 6.29833H11.0959C10.9946 6.49315 10.8773 6.67953 10.7451 6.85562C11.4389 7.23656 12.0166 7.79243 12.4187 8.46584C12.8207 9.13926 13.0324 9.90583 13.0321 10.6865ZM1.48938 3.00724C1.48927 2.54121 1.6187 2.084 1.86372 1.6849C2.10874 1.28581 2.46006 0.959976 2.87977 0.74255C3.29949 0.525124 3.77168 0.424354 4.24542 0.451106C4.71916 0.477858 5.17648 0.631118 5.56805 0.894356C4.7394 1.31417 4.0814 1.9991 3.70281 2.83594C3.32422 3.67278 3.2477 4.61143 3.4859 5.49677C2.91687 5.36213 2.41052 5.04337 2.04836 4.59178C1.68621 4.1402 1.48932 3.58207 1.48938 3.00724ZM3.79792 6.29833H2.97876C2.18875 6.29833 1.43109 6.60654 0.872459 7.15517C0.313833 7.70379 0 8.44788 0 9.22375C0 9.61168 0.156916 9.98373 0.43623 10.258C0.715543 10.5324 1.09437 10.6865 1.48938 10.6865H1.86173C1.86137 9.90583 2.07313 9.13926 2.47515 8.46584C2.87717 7.79243 3.45488 7.23656 4.14867 6.85562C4.01653 6.67953 3.89923 6.49315 3.79792 6.29833Z" fill="black"/>
</svg>
